<?xml version="1.0" encoding="UTF-8" standalone="no"?>
<!-- Created with Inkscape (http://www.inkscape.org/) -->

<svg
   width="390.5405"
   height="126.12356"
   viewBox="0 0 103.3305 33.37019"
   version="1.1"
   id="svg5"
   inkscape:version="1.2.1 (9c6d41e410, 2022-07-14)"
   sodipodi:docname="logo_PURPLE.svg"
   xml:space="preserve"
   xmlns:inkscape="http://www.inkscape.org/namespaces/inkscape"
   xmlns:sodipodi="http://sodipodi.sourceforge.net/DTD/sodipodi-0.dtd"
   xmlns="http://www.w3.org/2000/svg"
   xmlns:svg="http://www.w3.org/2000/svg"><sodipodi:namedview
     id="namedview7"
     pagecolor="#ffffff"
     bordercolor="#000000"
     borderopacity="0.25"
     inkscape:showpageshadow="2"
     inkscape:pageopacity="0.0"
     inkscape:pagecheckerboard="0"
     inkscape:deskcolor="#d1d1d1"
     inkscape:document-units="mm"
     showgrid="false"
     inkscape:zoom="1.255"
     inkscape:cx="174.50199"
     inkscape:cy="92.430279"
     inkscape:window-width="1366"
     inkscape:window-height="705"
     inkscape:window-x="-8"
     inkscape:window-y="-8"
     inkscape:window-maximized="1"
     inkscape:current-layer="layer1" /><defs
     id="defs2" /><g
     inkscape:label="Layer 1"
     inkscape:groupmode="layer"
     id="layer1"
     transform="translate(-1.2514133,-35.358108)"><path
       id="path614"
       style="fill:none;stroke-width:0.582348"
       d="M 70.428776,38.370268 A 11.595284,11.595284 0 0 0 58.833618,49.965426 11.595284,11.595284 0 0 0 70.428776,61.560583 11.595284,11.595284 0 0 0 82.023934,49.965426 11.595284,11.595284 0 0 0 70.428776,38.370268 Z" /><g
       id="g6491"
       style="fill:#100f40;fill-opacity:1"
       transform="matrix(1.775002,0,0,1.775002,-41.010522,-40.333585)"><g
         aria-label="VIVA"
         id="text523"
         style="font-size:24.3269px;font-family:Fender;-inkscape-font-specification:'Fender, Normal';text-align:center;text-anchor:middle;fill:#100f40;fill-opacity:1;stroke-width:1.33859"
         transform="translate(-7.9009538,2.5342667)"><path
           d="m 40.005941,41.904475 c 0.194615,4.354515 4.54913,8.173839 6.057398,9.949703 1.119037,1.289325 1.192018,3.819323 -0.583846,3.722015 0,0 -5.765475,-0.145961 -7.006147,-13.720372 h -6.762878 c 0,0 1.435287,16.834216 10.801144,16.834216 3.503073,0 4.646438,-2.35971 4.816726,-5.059996 0.243269,-4.403169 -2.213748,-10.387586 2.651632,-11.506624 l 0.02433,-0.170288 -9.998356,-0.04865 z"
           id="path1351"
           style="fill:#100f40;fill-opacity:1" /><path
           d="m 51.293638,46.696875 c 0.437884,0.291922 0.924422,0.437884 1.459614,0.437884 1.459614,0 2.627305,-1.167691 2.627305,-2.627305 0,-1.459614 -1.167691,-2.651633 -2.627305,-2.651633 -1.459614,0 -2.627305,1.192019 -2.627305,2.651633 0,0.802787 0.340577,1.508267 0.900095,1.994805 -0.802787,1.508268 -2.724613,4.889707 -2.457017,7.298071 0.729807,6.762878 7.371051,4.670764 7.371051,4.670764 v -8.295473 c -5.619514,3.162497 -4.962688,-1.873171 -4.646438,-3.478746 z"
           id="path1353"
           style="fill:#100f40;fill-opacity:1" /><path
           d="m 64.819391,41.904475 c 0.194615,4.354515 4.54913,8.173839 6.057398,9.949703 1.119037,1.289325 1.192018,3.819323 -0.583846,3.722015 0,0 -5.765475,-0.145961 -7.006147,-13.720372 h -6.762878 c 0,0 1.435287,16.834216 10.801143,16.834216 3.503074,0 4.646438,-2.35971 4.816727,-5.059996 0.243269,-4.403169 -2.213748,-10.387586 2.651632,-11.506624 l 0.02433,-0.170288 -9.998356,-0.04865 z"
           id="path1355"
           style="fill:#100f40;fill-opacity:1" /><path
           d="m 81.386031,42.09909 c -4.573457,-1.143364 -6.762878,2.213748 -7.249416,4.914034 -0.973076,5.230284 3.746343,10.630856 -1.386633,11.676913 v 0.121634 c 6.860186,0.145961 8.3198,0.510865 8.100858,-2.457017 -0.04865,-0.754134 -0.31625,-1.508268 -0.729807,-2.140767 -0.437885,-0.70548 -0.973076,-1.362307 -1.532595,-1.994806 h 3.430093 c 0.462211,1.751537 0.827114,3.965285 1.046056,6.689898 h 6.860186 c 0,0 -0.608172,-14.863737 -8.538742,-16.809889 z m -3.089516,9.779414 c -0.973076,-1.046056 -1.994806,-2.019132 -2.894901,-3.065189 -1.119038,-1.289326 -1.33798,-4.1599 1.702883,-3.794997 v 0 c 0,0 2.992209,0.07298 4.841053,6.860186 z"
           id="path1357"
           style="fill:#100f40;fill-opacity:1" /></g><g
         aria-label="®"
         id="text6419"
         style="font-weight:500;font-size:3.95966px;font-family:'General Sans';-inkscape-font-specification:'General Sans, Medium';text-align:center;text-anchor:middle;fill:#100f40;fill-opacity:1;stroke-width:0.739399"><path
           d="m 77.855532,45.395123 c 0.803811,0 1.40568,-0.613748 1.40568,-1.374002 0,-0.764215 -0.601869,-1.377962 -1.40568,-1.377962 -0.799851,0 -1.401719,0.613747 -1.401719,1.377962 0,0.760254 0.601868,1.374002 1.401719,1.374002 z m 0,-0.221741 c -0.673142,0 -1.144341,-0.514756 -1.144341,-1.152261 0,-0.641465 0.471199,-1.156221 1.144341,-1.156221 0.677102,0 1.148302,0.514756 1.148302,1.156221 0,0.637505 -0.4712,1.152261 -1.148302,1.152261 z m 0.300934,-0.455361 h 0.312814 l -0.372208,-0.542474 c 0.190063,-0.05544 0.324692,-0.201942 0.324692,-0.407845 0,-0.285095 -0.201943,-0.443482 -0.534554,-0.443482 h -0.538514 v 1.393801 h 0.261337 v -0.506837 h 0.217782 z m -0.285095,-1.179979 c 0.194023,0 0.293015,0.08711 0.293015,0.22966 0,0.146508 -0.09899,0.229661 -0.293015,0.229661 h -0.261338 v -0.459321 z"
           id="path6481"
           style="fill:#100f40;fill-opacity:1" /></g></g></g></svg>
